<svg xmlns="http://www.w3.org/2000/svg" class="doc" width="8.5in" height="33in"><svg class="C__page_1" width="8.5in" height="11in"><defs><pattern id="sheet__pattern" x="7" y="7" width="10" height="10" patternUnits="userSpaceOnUse" patternTransform="rotate(45)"><rect x="5" y="5" width="5" height="5" fill="gray"></rect></pattern></defs><svg class="page_1__content" x="0.25in" y="0.25in" width="8in" height="10.5in" viewBox="0 0 9307.2 3753.741"><svg class="C__back" width="96.95in" height="39.10146875in"><svg x="0" y="0" width="96.95in" height="4.5445312499999995in"><text x="48.475in" font-size="363.5625" dominant-baseline="hanging" text-anchor="middle">Back Assembly</text></svg><svg class="C__back__drawing" x="0" y="4.5445312499999995in" width="96.95in" height="22.4381875in"><svg class="C__back__body" x="0in" width="96.75in" height="11.5in"><rect width="96.75in" height="11.5in" fill="lightgray"><title>body back</title></rect><line class="screw__row" x1="0" y1="1.5in" x2="96.75in" y2="1.5in" stroke="black" stroke-dasharray="3 1"><title>screw row</title></line></svg><svg class="C__back__receivers" x="14.375in" y="12.5in" width="68in" height="4in"><rect class="back__driver__receiver__outer" width="2in" height="4in" x="0" y="0" fill="darkgray"><title>back driver receiver outer</title></rect><rect class="back__driver__receiver__inner" width="1.75in" height="3.75in" x="0.125in" y="0.125in" fill="gray"><title>back driver receiver inner</title></rect><rect class="back__passenger__receiver__outer" x="66in" y="0" width="2in" height="4in" fill="darkgray"><title>back passenger receiver inner</title></rect><rect class="back__passenger__receiver__inner" x="66.125in" y="0.125in" width="1.75in" height="3.75in" fill="gray"><title>back passenger receiver inner</title></rect></svg><svg class="C__back__bumper" x="0in" y="12.625in" width="96.75in" height="3.75in"><rect width="96.75in" height="3.75in" stroke="black" fill="gray" fill-opacity="0.8"></rect></svg><svg class="C__back__fender" x="0in" width="96.75in" height="16.5in"><rect fill="url(#sheet__pattern)" width="96.75in" height="16.5in" stroke="darkgray" stroke-width="0.7921609076843734"><title>bumper sheet</title></rect></svg><svg class="C__back__receivers__x_axis" x="0" y="16.5in" width="96.75in" height="3.0296874999999996in"><line class="C__back__receivers__x_axis__line" x1="14.5in" y1="1.211875in" x2="82.25in" y2="1.211875in" stroke="black" stroke-width="0.010416666666666666in"><title>back receiver x axis</title></line><line class="C__back__receivers__x_axis__tick_0" x1="14.5in" y1="0.2524739583333333in" x2="14.5in" y2="1.211875in" stroke="black" stroke-width="0.010416666666666666in"></line><line class="C__back__receivers__x_axis__tick_1" x1="16.25in" y1="0.2524739583333333in" x2="16.25in" y2="1.211875in" stroke="black" stroke-width="0.010416666666666666in">1.75in</line><text class="C__back__receivers__x_axis__tick_1 text" x="15.375in" y="3.0296874999999996in" font-size="1.5148437499999998in" text-anchor="middle">1.75in</text><line class="C__back__receivers__x_axis__tick_2" x1="80.5in" y1="0.2524739583333333in" x2="80.5in" y2="1.211875in" stroke="black" stroke-width="0.010416666666666666in">64.25in</line><text class="C__back__receivers__x_axis__tick_2 text" x="48.375in" y="3.0296874999999996in" font-size="1.5148437499999998in" text-anchor="middle">64.25in</text><line class="C__back__receivers__x_axis__tick_3" x1="82.25in" y1="0.2524739583333333in" x2="82.25in" y2="1.211875in" stroke="black" stroke-width="0.010416666666666666in">1.75in</line><text class="C__back__receivers__x_axis__tick_3 text" x="81.375in" y="3.0296874999999996in" font-size="1.5148437499999998in" text-anchor="middle">1.75in</text></svg><svg class="C__back__fender__x_axis" x="0in" y="19.5296875in" width="96.75in" height="2.9084999999999996in"><line class="C__back__fender__x_axis__line" x1="0" y1="1.211875in" x2="96.75in" y2="1.211875in" stroke="black" stroke-width="0.010416666666666666in"><title>back fender x axis</title></line><line class="C__back__fender__x_axis__tick_0" x1="0" y1="0.2524739583333333in" x2="0" y2="1.211875in" stroke="black" stroke-width="0.010416666666666666in"></line><line class="C__back__fender__x_axis__tick_1" x1="96.75in" y1="0.2524739583333333in" x2="96.75in" y2="1.211875in" stroke="black" stroke-width="0.010416666666666666in">96.75in</line><text class="C__back__fender__x_axis__tick_1 text" x="48.375in" y="2.9084999999999996in" font-size="1.5148437499999998in" text-anchor="middle">96.75in</text></svg></svg></svg></svg></svg><svg class="C__page_2" y="11in" width="8.5in" height="11in"><defs><pattern id="sheet__pattern" x="7" y="7" width="10" height="10" patternUnits="userSpaceOnUse" patternTransform="rotate(45)"><rect x="5" y="5" width="5" height="5" fill="gray"></rect></pattern></defs><svg class="page_2__content" x="0.25in" y="0.25in" width="8in" height="10.5in" viewBox="0 0 1440 1363.5"><svg class="C__driver" width="15in" height="14.203125in"><svg x="0" y="0" width="15in" height="0.703125in"><text x="7.5in" font-size="56.25" dominant-baseline="hanging" text-anchor="middle">Driver Side Assembly</text></svg><svg class="driver__drawing" x="0" y="0.703125in" width="15in" height="13.5in"><svg class="C__driver__body" width="8in" height="7.5in"><rect class="driver__body" width="8in" height="7.5in" fill="lightgray"><title>driver body</title></rect></svg><svg class="C__driver__frame" y="8.5in" width="6in" height="4in"><rect width="6in" height="4in" fill="gray" fill-opacity="0.8"><title>driver frame</title></rect><circle class="side__frame__hole" cx="4.875in" cy="2in" r="0.375in" fill="black"><title>bolt hole</title></circle></svg><svg class="C__driver__bumper" x="0in" y="8.625in" width="14in" height="3.75in"><rect x="0" width="12in" height="3.75in" stroke="black" fill="gray" fill-opacity="0.8"><title>driver bumper connect piece</title></rect><rect x="12in" width="2in" height="3.75in" stroke="black" fill="gray" fill-opacity="0.8"><title>driver bumper cross piece</title></rect></svg><svg class="C__driver__fender" width="14in" height="12.5in"><path d="M 768 0 V 828 H 1344 V 1200 H 0 V 720 C 0 540, 288 540, 384 540 C 384 540, 652.8 576, 652.8 360 C 691.2 72, 691.2 0, 768 0" fill="url(#sheet__pattern)" stroke="darkgray" stroke-width="5.120000000000001"></path></svg><svg class="C__driver__y_axis" x="14in" y="0" width="1in" height="12.5in"><line class="C__driver__y_axis__line" x1="0.1875in" y1="0" x2="0.1875in" y2="12.5in" stroke="black"><title>driver body y-axis</title></line><line class="C__driver__y_axis__tick_0" x1="2" y1="0" x2="0.1875in" y2="0" stroke="black">7.5in</line><text class="C__driver__y_axis__tick_0 text" x="0.2625in" y="3.75in" font-size="0.125in" dominant-baseline="middle" text-anchor="start">7.5in</text><line class="C__driver__y_axis__tick_1" x1="2" y1="7.5in" x2="0.1875in" y2="7.5in" stroke="black">1in</line><text class="C__driver__y_axis__tick_1 text" x="0.2625in" y="8in" font-size="0.125in" dominant-baseline="middle" text-anchor="start">1in</text><line class="C__driver__y_axis__tick_2" x1="2" y1="8.5in" x2="0.1875in" y2="8.5in" stroke="black">0.125in</line><text class="C__driver__y_axis__tick_2 text" x="0.2625in" y="8.5625in" font-size="0.125in" dominant-baseline="middle" text-anchor="start">0.125in</text><line class="C__driver__y_axis__tick_3" x1="2" y1="8.625in" x2="0.1875in" y2="8.625in" stroke="black">3.75in</line><text class="C__driver__y_axis__tick_3 text" x="0.2625in" y="10.5in" font-size="0.125in" dominant-baseline="middle" text-anchor="start">3.75in</text><line class="C__driver__y_axis__tick_4" x1="2" y1="12.375in" x2="0.1875in" y2="12.375in" stroke="black"></line><line class="C__driver__y_axis__tick_5" x1="2" y1="12.5in" x2="0.1875in" y2="12.5in" stroke="black">0.125in</line><text class="C__driver__y_axis__tick_5 text" x="0.2625in" y="12.4375in" font-size="0.125in" dominant-baseline="middle" text-anchor="start">0.125in</text></svg><svg class="C__driver__x_axis" x="0" y="12.5in" width="14in" height="1in"><line class="C__driver__x_axis__line" x1="0" y1="0.1875in" x2="14in" y2="0.1875in" stroke="black" stroke-width="0.01953125in"><title>driver body y-axis</title></line><line class="C__driver__x_axis__tick_0" x1="0" y1="0.0732421875in" x2="0" y2="0.1875in" stroke="black" stroke-width="0.010416666666666666in"></line><line class="C__driver__x_axis__tick_1" x1="6in" y1="0.0732421875in" x2="6in" y2="0.1875in" stroke="black" stroke-width="0.010416666666666666in">6in</line><text class="C__driver__x_axis__tick_1 text" x="3in" y="0.3875in" font-size="0.125in" text-anchor="middle">6in</text><line class="C__driver__x_axis__tick_2" x1="8in" y1="0.0732421875in" x2="8in" y2="0.1875in" stroke="black" stroke-width="0.010416666666666666in">2in</line><text class="C__driver__x_axis__tick_2 text" x="7in" y="0.3875in" font-size="0.125in" text-anchor="middle">2in</text><line class="C__driver__x_axis__tick_3" x1="12in" y1="0.0732421875in" x2="12in" y2="0.1875in" stroke="black" stroke-width="0.010416666666666666in">4in</line><text class="C__driver__x_axis__tick_3 text" x="10in" y="0.3875in" font-size="0.125in" text-anchor="middle">4in</text><line class="driver__x_axis__tick_4" x1="14in" y1="0.0732421875in" x2="14in" y2="0.1875in" stroke="black" stroke-width="0.010416666666666666in">2in</line><text class="driver__x_axis__tick_4 text" x="13in" y="0.3875in" font-size="0.125in" text-anchor="middle">2in</text></svg><svg class="C__side__frame__axis" y="8.5in" width="6in" height="4in"><svg class="C__side__frame__hole__placement__axis" x="5.25in" y="1.25in" width="0.75in" height="1.5in"><line class="C__side__frame__hole__placement__axis__line" x1="0" y1="0.1875in" x2="0.75in" y2="0.1875in" stroke="black" stroke-width="0.01953125in"></line><line class="C__side__frame__hole__placement__axis__tick_0" x1="0" y1="0.1875in" x2="0" y2="0.3375in" stroke="black" stroke-width="0.01953125in"></line><line class="C__side__frame__hole__placement__axis__tick_1" x1="0.75in" y1="0.1875in" x2="0.75in" y2="0.3375in" stroke="black" stroke-width="0.01953125in">0.75in</line><text class="C__side__frame__hole__placement__axis__tick_1 text" x="0.375in" y="0in" font-size="10" dominant-baseline="hanging" text-anchor="middle">0.75in</text></svg><svg class="C__side__frame__hole__axis" x="4.5in" y="2.375in" width="0.75in" height="0.75in"><line class="C__side__frame__hole__axis__line" x1="0" y1="0.1875in" x2="0.75in" y2="0.1875in" stroke="black" stroke-width="0.01953125in"></line><line class="C__side__frame__hole__axis__tick_0" x1="0" y1="2" x2="0" y2="0.1875in" stroke="black" stroke-width="0.01953125in"></line><line class="C__side__frame__hole__axis__tick_1" x1="0.75in" y1="2" x2="0.75in" y2="0.1875in" stroke="black" stroke-width="0.01953125in">0.75in</line><text class="C__side__frame__hole__axis__tick_1 text" x="0.375in" y="0.375in" font-size="10" text-anchor="middle">0.75in</text></svg></svg></svg></svg></svg></svg><svg class="C__page_3" y="22in" width="8.5in" height="11in"><svg class="page_3__content" x="0.25in" y="0.25in" width="8in" height="10.5in" viewBox="0 0 288 497.77777777777777"><svg class="C__back__receiver" width="3in" height="5.185185185185185in"><svg class="back__receiver__title" x="0" y="0" width="3in" height="0.1851851851851852in"><text x="1.5in" font-size="14.814814814814815" dominant-baseline="hanging" text-anchor="middle">Back Receiver</text></svg><svg class="back__receiver__drawing" x="0" y="0.1851851851851852in" width="3in" height="5in"><rect class="back__receiver" width="2in" height="4in" fill="gray"></rect><rect class="back__receiver" x="0.125in" y="0.125in" width="1.75in" height="3.75in" fill="lightgray"></rect><svg class="C__back__receiver__y_axis" x="2in" y="0" width="1in" height="5in"><line class="C__back__receiver__y_axis__line" x1="0.1in" y1="0in" x2="0.1in" y2="4in" stroke="black"><title>back receiver y-axis</title></line><line class="C__back__receiver__y_axis__tick_0" x1="0" y1="0" x2="0.1in" y2="0" stroke="black"></line><line class="C__back__receiver__y_axis__tick_1" x1="0" y1="0.125in" x2="0.1in" y2="0.125in" stroke="black">0.125in</line><text class="C__back__receiver__y_axis__tick_1 text" x="0.2875in" y="0.0625in" font-size="0.125in" dominant-baseline="middle" text-anchor="start">0.125in</text><line class="C__back__receiver__y_axis__tick_2" x1="0" y1="3.875in" x2="0.1in" y2="3.875in" stroke="black">3.75in</line><text class="C__back__receiver__y_axis__tick_2 text" x="0.2875in" y="2in" font-size="0.125in" dominant-baseline="middle" text-anchor="start">3.75in</text><line class="C__back__receiver__y_axis__tick_3" x1="0" y1="4in" x2="0.1in" y2="4in" stroke="black">0.125in</line><text class="C__back__receiver__y_axis__tick_3 text" x="0.2875in" y="3.9375in" font-size="0.125in" dominant-baseline="middle" text-anchor="start">0.125in</text></svg><svg class="C__back__receiver__x_axis" x="0" y="4in" width="3in" height="5in"><line class="C__back__receiver__y_axis__line" x1="0in" y1="0.1in" x2="2in" y2="0.1in" stroke="black"><title>back receiver x-axis</title></line><line class="C__back__receiver__y_axis__tick_0" x1="0" y1="0" x2="0" y2="0.14in" stroke="black"></line><line class="C__back__receiver__y_axis__tick_1" x1="0.125in" y1="0" x2="0.125in" y2="0.14in" stroke="black">0.125in</line><text class="C__back__receiver__y_axis__tick_1 text" x="0" y="0.2875in" font-size="0.125in" dominant-baseline="middle" text-anchor="start">0.125in</text><line class="C__back__receiver__y_axis__tick_2" x1="1.875in" y1="0" x2="1.875in" y2="0.14in" stroke="black">1.75in</line><text class="C__back__receiver__y_axis__tick_2 text" x="1in" y="0.2875in" font-size="0.125in" dominant-baseline="middle" text-anchor="middle">1.75in</text><line class="C__back__receiver__y_axis__tick_3" x1="2in" y1="0" x2="2in" y2="0.14in" stroke="black">0.125in</line><text class="C__back__receiver__y_axis__tick_3 text" x="2in" y="0.2875in" font-size="0.125in" dominant-baseline="middle" text-anchor="end">0.125in</text></svg></svg></svg></svg></svg></svg>