<svg xmlns="http://www.w3.org/2000/svg" class="doc" width="8.5in" height="33in"><svg class="C__page" width="8.5in" height="11in"><svg class="C__page__content" width="8in" height="10.5in" x="0.25in" y="0.25in" viewBox="0 0 9287.990399999999 2544.0096"><svg width="96.7499in" height="26.5001in" viewBox="0 0 96.7499 26.5001" fill="none" fill-rule="evenodd" stroke-width="0.1px" version="1.1" baseProfile="tiny" xmlns="http://www.w3.org/2000/svg" xmlns:xlink="http://www.w3.org/1999/xlink">
  <g>
    <path fill="rgb(128,128,128,255)" d="M82.25 16.3751L80.4999 16.3751L80.4999 12.6251L82.25 12.6251L82.25 16.3751M82.3751 12.5L80.3751 12.5L80.3751 16.4999L82.3751 16.4999L82.3751 12.5M16.2499 16.3751L14.5001 16.3751L14.5001 12.6251L16.2499 12.6251L16.2499 16.3751M16.375 12.5L14.375 12.5L14.375 16.4999L16.375 16.4999L16.375 12.5"/>
  </g>
  <g>
    <path fill="rgb(128,128,128,255)" d="M0 11.5002L96.7499 11.5002L96.7499 0L0 0L0 11.5002"/>
  </g>
</svg>
</svg></svg><svg class="C__page" width="8.5in" height="11in" y="11in"><svg class="C__page__content" width="8in" height="10.5in" x="0.25in" y="0.25in" viewBox="0 0 2544 777.5999999999999"><svg width="26.5in" height="8.1in" viewBox="0 0 26.5 8.1" fill="none" fill-rule="evenodd" stroke-width="0.1px" version="1.1" baseProfile="tiny" xmlns="http://www.w3.org/2000/svg" xmlns:xlink="http://www.w3.org/1999/xlink">
  <g>
    <path fill="rgb(128,128,128,255)" d="M10 6L14 6L14 0L10 0L10 6"/>
  </g>
  <g>
    <path fill="rgb(128,128,128,255)" d="M15 8.1L26.5 8.1L26.5 0.1L15 0.1L15 8.1"/>
  </g>
</svg>
</svg></svg></svg>